<svg width="42" height="38" viewBox="0 0 42 38" fill="none" xmlns="http://www.w3.org/2000/svg">
<path d="M15.4891 17.4167C17.3901 17.4167 18.9311 15.9989 18.9311 14.25C18.9311 12.5011 17.3901 11.0833 15.4891 11.0833C13.5881 11.0833 12.0471 12.5011 12.0471 14.25C12.0471 15.9989 13.5881 17.4167 15.4891 17.4167Z" stroke="#1C274C" stroke-width="1.5"/>
<path d="M22.3732 23.75C22.3732 25.499 22.3732 26.9167 15.4891 26.9167C8.60507 26.9167 8.60507 25.499 8.60507 23.75C8.60507 22.0011 11.6872 20.5833 15.4891 20.5833C19.291 20.5833 22.3732 22.0011 22.3732 23.75Z" stroke="#1C274C" stroke-width="1.5"/>
<path d="M3.44202 19C3.44202 13.0289 3.44202 10.0433 5.45831 8.18833C7.47461 6.33334 10.7198 6.33334 17.2101 6.33334H24.0942C30.5845 6.33334 33.8298 6.33334 35.846 8.18833C37.8623 10.0433 37.8623 13.0289 37.8623 19C37.8623 24.9711 37.8623 27.9568 35.846 29.8116C33.8298 31.6667 30.5845 31.6667 24.0942 31.6667H17.2101C10.7198 31.6667 7.47461 31.6667 5.45831 29.8116C3.44202 27.9568 3.44202 24.9711 3.44202 19Z" stroke="#1C274C" stroke-width="1.5"/>
<path d="M32.6993 19H25.8152" stroke="#1C274C" stroke-width="1.5" stroke-linecap="round"/>
<path d="M32.6993 14.25H24.0942" stroke="#1C274C" stroke-width="1.5" stroke-linecap="round"/>
<path d="M32.6993 23.75H27.5362" stroke="#1C274C" stroke-width="1.5" stroke-linecap="round"/>
</svg>
