<svg width="50" height="50" viewBox="0 0 50 50" fill="none" xmlns="http://www.w3.org/2000/svg">
<circle cx="25" cy="25" r="20" fill="#002978"/>
<path d="M22.4875 38.4375C22.2375 38.4375 22.0375 38.3875 21.8875 38.325C21.3875 38.1375 20.5375 37.525 20.5375 35.5875V32.5375C20.5375 32.025 20.9625 31.6 21.475 31.6C21.9875 31.6 22.4125 32.025 22.4125 32.5375V35.5875C22.4125 36.2125 22.525 36.4875 22.575 36.5625C22.6125 36.5125 22.875 36.3875 23.2875 35.9125L32.75 25.1625C33.1 24.7625 33.15 24.5125 33.15 24.4625C33.125 24.45 32.9 24.325 32.375 24.325H31.2125C30.7 24.325 30.275 23.9 30.275 23.3875C30.275 22.875 30.7 22.45 31.2125 22.45H32.375C34.05 22.45 34.65 23.2375 34.8625 23.7C35.075 24.175 35.2625 25.1375 34.1625 26.4L24.7 37.15C23.8125 38.175 23.0375 38.4375 22.4875 38.4375ZM21.475 29.025C20.9625 29.025 20.5375 28.6 20.5375 28.0875V27.55H17.6125C15.9375 27.55 15.3375 26.7625 15.125 26.3C14.9125 25.825 14.725 24.8625 15.825 23.6L25.2875 12.85C26.5625 11.4 27.6 11.5 28.1 11.6875C28.6 11.875 29.45 12.4875 29.45 14.425V21.0625C29.45 21.575 29.025 22 28.5125 22C28 22 27.575 21.575 27.575 21.0625V14.4C27.575 13.775 27.4625 13.5 27.4125 13.425C27.375 13.475 27.1125 13.6 26.7 14.075L17.2375 24.825C16.8875 25.225 16.8375 25.475 16.8375 25.525C16.8625 25.5375 17.0875 25.6625 17.6125 25.6625H21.475C21.9875 25.6625 22.4125 26.0875 22.4125 26.6V28.075C22.4125 28.6 21.9875 29.025 21.475 29.025Z" fill="white"/>
<path d="M12.5001 38.4388C12.2626 38.4388 12.0251 38.3513 11.8376 38.1638C11.6632 37.9873 11.5654 37.7493 11.5654 37.5013C11.5654 37.2532 11.6632 37.0152 11.8376 36.8388L36.8376 11.8388C37.2001 11.4763 37.8001 11.4763 38.1626 11.8388C38.5251 12.2013 38.5251 12.8013 38.1626 13.1638L13.1626 38.1638C12.9751 38.3513 12.7376 38.4388 12.5001 38.4388Z" fill="white"/>
</svg>
